# xmcd
# 
# Track frame offsets:
#     150
#     18317
#     34039
#     49411
#     59280
#     73166
#     95400
#     111866
#     132816
#     146587
#     168795
# 
# Disc length: 2542
# 
# Revision: 2
# Processed by: cddbd v1.5.2PL0 Copyright (c) Steve Scherf et al.
# Submitted via: fre:ac v1.0.31
# 
DISCID=9609ec0b
DTITLE=Robin Trower - What Lies Beneath
DYEAR=2009
DGENRE=Rock/Pop
TTITLE0=Wish You Were Mine
TTITLE1=What Lies Beneath
TTITLE2=As You Watch Each City Fall (part 1)
TTITLE3=As You Watch Each City Fall (part 2)
TTITLE4=Freefall
TTITLE5=Once The Spell Is Broken
TTITLE6=Sleeping On The Moon
TTITLE7=Time And Emotion
TTITLE8=Skin And Bone
TTITLE9=Buffalo Blues
TTITLE10=Find A Place
EXTD=
EXTT0=
EXTT1=
EXTT2=
EXTT3=
EXTT4=
EXTT5=
EXTT6=
EXTT7=
EXTT8=
EXTT9=
EXTT10=
PLAYORDER=
